<?xml version="1.0" encoding="UTF-8" standalone="no"?>
<!-- Created with Inkscape (http://www.inkscape.org/) -->

<svg
   version="1.1"
   id="svg2"
   width="980.84003"
   height="1022.5333"
   viewBox="0 0 980.84003 1022.5333"
   sodipodi:docname="HWS Esports_1C.eps"
   xmlns:inkscape="http://www.inkscape.org/namespaces/inkscape"
   xmlns:sodipodi="http://sodipodi.sourceforge.net/DTD/sodipodi-0.dtd"
   xmlns="http://www.w3.org/2000/svg"
   xmlns:svg="http://www.w3.org/2000/svg">
  <defs
     id="defs6" />
  <sodipodi:namedview
     id="namedview4"
     pagecolor="#ffffff"
     bordercolor="#000000"
     borderopacity="0.25"
     inkscape:showpageshadow="2"
     inkscape:pageopacity="0.0"
     inkscape:pagecheckerboard="0"
     inkscape:deskcolor="#d1d1d1" />
  <g
     id="g8"
     inkscape:groupmode="layer"
     inkscape:label="ink_ext_XXXXXX"
     transform="matrix(1.3333333,0,0,-1.3333333,0,1022.5333)">
    <g
       id="g10"
       transform="scale(0.1)">
      <path
         d="m 6356.94,1958.72 121.69,138.53 -775.83,141.21 15.13,37.17 99.92,-2.9 0.12,-0.01 c 4.95,-0.46 14.17,-1.32 25.67,-1.32 34.01,0 66.55,7.35 96.66,21.85 7.54,3.62 15.24,7.25 22.94,10.9 29.14,13.79 62.19,29.43 95.35,48.01 246.6,138.24 470.41,321.78 666.89,546.49 80.54,83.39 157.34,171.98 231.03,264.91 73.32,92.48 144.09,186.96 219.6,285.15 -7.54,-649.25 -284.33,-1221.72 -819.17,-1489.99 z m 73.44,-563.67 -203.59,300.55 c 104.85,27.22 208.88,59.95 311.99,99.01 106.27,40.26 208.89,90.15 328.11,142.12 -108.31,-232.18 -254.9,-410.28 -436.51,-541.68 z m -512.4,-231.63 c -167.32,-41.89 -334.79,-60.41 -502.14,-60.41 -194.89,0 -389.62,25.09 -584.14,67.54 -10.43,2.28 -20.04,8.31 -27.85,11.69 53.58,76.91 106.07,153.7 159.32,229.57 l 1314.91,-111.8 c -109.86,-58.69 -229.94,-103.99 -360.1,-136.59 z M 5464.96,741.602 c -142.12,-87.153 -295.3,-126.141 -452.37,-126.141 -197.57,0 -401.32,61.957 -597.39,166.848 81.42,86.793 160.67,175.472 237.47,265.561 220.04,-114.132 446.49,-213.268 688.03,-277.429 37.98,-10.07 76.59,-17.839 124.26,-28.839 z m -1858.31,-432.981 -29.56,-24.953 -28.77,25.871 c -437.65,393.441 -819.31,836.421 -1139.3,1317.251 124.48,11.82 243.94,21.94 359.47,30.38 240.71,-343.92 514.11,-664.701 818.51,-959.279 323.29,293.757 614.35,616.339 871.4,964.389 115.97,-8.04 235.14,-17.82 358.88,-29.46 C 4476.03,1145.5 4070.41,699.891 3606.65,308.621 Z m 886.23,11.777 c -58.35,4.383 -106.84,1.391 -151.9,12.411 -98.88,24.23 -193.97,54.773 -285.61,91.043 41.24,38.398 82.22,77.226 122.74,116.707 99,-72.731 204.33,-141.758 314.77,-220.161 z M 2855.5,332.809 c -45.03,-11.02 -93.52,-8.028 -151.87,-12.411 104.73,74.364 204.79,140.321 299.29,208.961 37.67,-38.691 75.7,-76.988 114.21,-114.82 -84.24,-32.16 -171.34,-59.598 -261.63,-81.73 z m -511.8,282.652 c -157.07,0 -310.27,38.988 -452.38,126.141 47.68,11 86.29,18.769 124.26,28.839 200.29,53.2 390.19,130.5 574.69,220.399 74.44,-90.86 150.93,-180.102 229.74,-267.262 C 2661.97,654.809 2500.87,615.461 2343.7,615.461 Z m -403.25,487.549 c -167.36,0 -334.82,18.52 -502.14,60.41 -145,36.31 -277.38,88.53 -397.13,157.37 l 1221.68,81.05 c 23.58,-27.84 48.78,-56.39 75.87,-86.01 38.98,-53.57 78.84,-106.54 119.33,-159.04 -172.4,-34.02 -344.96,-53.78 -517.61,-53.78 z M 489.398,1936.73 c 119.219,-51.97 221.844,-101.86 328.11,-142.12 91.246,-34.56 183.212,-64.28 275.822,-89.54 L 891.48,1420.96 C 725.746,1549.6 590.766,1719.43 489.398,1936.73 Z M 180.156,3448.71 c 75.52,-98.19 146.285,-192.67 219.621,-285.15 73.653,-92.88 150.411,-181.43 230.899,-264.78 196.484,-224.78 420.354,-408.35 667.044,-546.62 33.1,-18.56 66.11,-34.18 95.25,-47.98 7.72,-3.65 15.45,-7.29 23.13,-11 29.66,-14.28 61.83,-21.57 95.45,-21.73 l 28.06,-46.45 -728.516,-79.88 113.234,-146.04 c -485.777,282.66 -736.973,831.4 -744.172,1449.63 z m 46.856,990.13 c 3.761,194.17 43.039,381.52 127.254,572.51 14.828,-73.61 23.339,-134.29 39.48,-192.88 62.445,-226.79 147.125,-439.51 253.481,-638.54 133.503,-333.28 307.707,-627.83 500.763,-828.75 l 217.75,-226.61 -14.96,-2.42 20.44,-554.56 c -36.43,16.92 -72.47,35.27 -108.16,54.98 -211.63,140.07 -394.716,313.56 -553.47,513.85 -302.074,381.11 -492.188,805.65 -482.578,1302.42 z m 844.858,2651.12 c 0.07,-8.34 0.75,-15.4 0.12,-22.35 -55.68,-614.5 16.26,-1208.41 202.22,-1783.04 -72.28,-30.63 -202.43,-88.24 -199.85,-107.62 l 27.25,-265.4 c 23.62,-230.6 59.07,-463.61 105.39,-692.66 29.74,-201.22 86.32,-339.55 153.81,-433.43 -7.27,-60.14 -14.55,-120.28 -21.81,-180.21 -126.55,126.65 -239.37,261.86 -338.34,405.15 -182.238,357.82 -323.234,813.31 -359.894,1259.29 -56.192,683.64 149.019,1553.67 431.104,1820.27 z m 237.28,-2043.93 c 729.49,256.49 1493.4,386.53 2270.5,386.53 821.91,0 1626.08,-144.61 2390.17,-429.81 l 33.06,-12.33 -4.53,-34.98 c -28.88,-222.66 -68.56,-442.64 -118.34,-659.43 0,0.01 -0.01,0.01 -0.02,0.01 -7.96,1.95 -16.47,3.99 -25.57,6.1 -0.05,0.01 -0.1,0.02 -0.15,0.03 -27.13,6.28 -59.42,13.18 -97.41,20.47 -0.47,0.09 -0.91,0.17 -1.38,0.26 -12.11,2.33 -24.87,4.68 -38.15,7.08 -1.05,0.19 -2.07,0.37 -3.12,0.56 -13.17,2.36 -26.92,4.75 -41.26,7.16 -1.25,0.21 -2.52,0.42 -3.78,0.63 -14.5,2.43 -29.56,4.87 -45.27,7.34 -1.09,0.17 -2.2,0.34 -3.29,0.51 -16.21,2.53 -32.99,5.07 -50.53,7.63 -0.07,0.01 -0.13,0.02 -0.2,0.03 30.3,132.71 56.79,266.57 78.94,401.59 -664.22,222.15 -1358.67,334.7 -2066.08,334.7 -665.58,0 -1321.84,-100.25 -1952.55,-298.12 20.21,-148.23 45.64,-295.23 75.68,-440.99 -0.04,-0.01 -0.08,-0.01 -0.12,-0.02 -91.78,-12.96 -166.34,-25.61 -225.67,-36.98 -0.29,-0.06 -0.58,-0.11 -0.86,-0.17 -11.71,-2.24 -22.85,-4.43 -33.38,-6.57 -0.01,0 -0.03,-0.01 -0.04,-0.01 -21.32,-4.33 -40.29,-8.41 -56.99,-12.18 -0.02,0 -0.03,-0.01 -0.04,-0.01 -48.18,231.75 -84.73,466.85 -109.07,704.56 l -3.57,34.81 z m 4755.65,-856.78 4.55,17.63 c 48.82,216.94 87.79,436.62 115.83,652.92 l 34.53,266.55 c 3.05,23.53 -77.02,61.78 -158.93,94.72 201.72,594.58 281.28,1209.86 223.52,1847.28 -0.65,6.95 0.05,14.03 0.12,22.37 282.09,-266.62 487.29,-1136.64 431.1,-1820.28 -36.74,-447.06 -178.32,-903.66 -361.19,-1261.86 -98.07,-141.76 -209.62,-275.63 -334.7,-401.07 11.3,215.11 32.29,535.4 45.17,581.74 z M 5404.6,2786.33 c -26.14,1.03 -54.52,2.98 -84.33,5.89 -165.46,15.88 -333.72,29.62 -500.2,40.84 -3.19,0.23 -6.37,0.45 -9.56,0.65 7.13,141.33 14.2,282.65 21.24,423.98 3.17,-0.22 6.33,-0.43 9.49,-0.64 82.15,-5.61 164.25,-11.75 246.41,-18.49 2.56,-0.22 5.13,-0.43 7.69,-0.64 0,-0.01 9.66,-59.71 17.28,-107.01 l -115.3,-22.69 120.8,-11.52 0.05,-0.29 c 22.51,-1.88 45.03,-4.17 67.54,-6.15 l 26.45,-2.52 0.51,0.07 c 49.9,-4.47 99.78,-8.73 149.67,-13.62 6.84,-0.66 13.34,-1.14 19.6,-1.37 75.36,-2.94 105.33,25.44 110.53,105.03 0.54,8.35 1.09,16.7 1.62,25.05 2.83,43.36 -3.98,72.76 -21.32,92.42 -17.66,20.04 -47.75,31.61 -94.64,36.25 -50.43,5 -100.81,9.72 -151.22,14.25 -271.05,24 -402.25,172.46 -390.03,444.96 0.42,9.01 0.85,18.03 1.27,27.05 10.29,237.89 150.61,365.78 395.18,357.12 12.8,-0.47 25.88,-1.31 39.28,-2.52 186.41,-17.06 375.51,-37.52 562.07,-60.7 3.13,-0.39 6.25,-0.77 9.38,-1.16 -9.18,-140.73 -18.46,-281.46 -27.82,-422.19 -3.16,0.38 -6.32,0.76 -9.46,1.15 -83.96,10.32 -168,20 -251.92,29.09 -2.56,0.28 -5.08,0.56 -7.62,0.83 -0.01,-0.02 -8.58,54.4 -15.9,100.59 l 136.17,26.8 -142.59,13.59 -0.17,1.04 c -69.2,7.41 -138.38,14.31 -207.56,20.87 -6.63,0.64 -12.99,1.06 -19.07,1.28 -77.51,2.89 -107.87,-26 -112.06,-106.18 -0.45,-8.38 -0.91,-16.74 -1.35,-25.1 -4.58,-85.7 26.3,-118.95 117.91,-127.5 51.45,-4.84 102.91,-9.88 154.29,-15.18 131.73,-13.67 231.14,-58.56 295.35,-132.86 67.71,-77.88 96.73,-188 86.52,-327.12 -0.64,-8.96 -1.29,-17.94 -1.94,-26.9 -18.89,-248.37 -148.27,-347.75 -432.24,-336.45 z m -778,1160.35 c -92.53,-357.73 -183.78,-721.33 -271.33,-1081 -0.6,-2.44 -1.2,-4.89 -1.81,-7.33 -2.62,0.1 -5.23,0.21 -7.84,0.31 -115.23,4.64 -231.79,8.2 -346.5,10.58 -2.61,0.04 -5.23,0.1 -7.83,0.15 -0.44,2.48 -0.86,4.94 -1.31,7.41 -44.07,250.92 -90.13,504.88 -137.05,755.04 l -5.13,0.05 c -60.38,-249.41 -120.08,-502.18 -177.6,-751.58 -0.57,-2.45 -1.14,-4.92 -1.72,-7.37 -2.6,0 -5.21,0 -7.82,0.01 -115.02,0.13 -231.62,-0.86 -346.64,-2.96 -2.61,-0.05 -5.25,-0.1 -7.87,-0.14 -0.47,2.46 -0.94,4.91 -1.4,7.37 -66.83,355.19 -137.33,714.29 -209.57,1068.16 l 82.29,16.2 -87.26,8.31 -0.33,1.65 c -39.11,4.75 -78.26,9.36 -117.42,13.83 -2.63,0.3 -5.28,0.6 -7.91,0.9 0.74,80.92 1.49,161.84 2.25,242.75 3.13,0.13 6.24,0.26 9.36,0.4 140.78,5.92 283.26,10.21 423.6,12.64 2.56,0.05 5.13,0.09 7.7,0.13 0.46,-2.46 0.91,-4.91 1.36,-7.38 44.8,-241.97 88.87,-487.25 131.26,-729.14 l 4.68,0.04 c 49.79,243.84 101.15,489.94 152.71,731.49 0.53,2.49 1.06,5 1.6,7.5 4.95,0 9.9,-0.01 14.85,-0.01 103.11,-0.09 208.22,-1.15 312.33,-3.1 2.59,-0.05 5.18,-0.11 7.77,-0.15 0.4,-2.51 0.81,-5.02 1.2,-7.53 38.89,-243.13 77.2,-490.16 113.92,-734.49 l 4.69,-0.14 c 55.27,241.18 112.45,485.62 169.94,726.62 0.59,2.46 1.16,4.92 1.74,7.37 2.57,-0.09 5.13,-0.21 7.7,-0.28 140.4,-5.22 282.8,-12.21 423.28,-20.92 3.11,-0.19 6.23,-0.39 9.36,-0.58 -3.29,-75.92 -6.59,-151.85 -9.9,-227.78 l -172.83,-32.88 z M 1664.09,3058.41 c -5.67,263.69 -11.09,527.33 -16.2,790.91 l 34,9.2 -34.25,2.59 -125.46,9.48 c -1.6,78.87 -3.17,157.72 -4.7,236.56 3.14,0.4 6.29,0.79 9.43,1.18 152.65,19.02 307.44,36.26 460.13,51.33 41.76,4.12 83.52,8.07 125.24,11.91 3.13,0.29 6.27,0.58 9.4,0.86 0.63,-80.55 1.28,-161.1 1.97,-241.65 -2.65,-0.64 -85.63,-21.08 -124.42,-30.83 1.08,-92.27 2.17,-184.55 3.32,-276.82 123.43,11.78 248.82,22.45 372.93,31.68 -0.32,88.46 -0.62,176.92 -0.9,265.38 l 32.4,8.76 -32.44,2.45 c 0,0.3 -121.86,10.1 -124.5,10.29 -0.41,80.63 -0.79,161.25 -1.16,241.88 3.12,0.26 6.25,0.52 9.38,0.78 41.72,3.44 83.38,6.82 125.04,9.96 151.62,11.55 305.65,21.32 457.81,28.9 3.12,0.14 6.24,0.3 9.37,0.46 -0.53,-80.87 -1.04,-161.75 -1.54,-242.63 -2.65,-0.54 -5.3,-1.07 -7.93,-1.62 -38.79,-7.9 -77.55,-15.98 -116.32,-24.13 -0.81,-281.42 -1.51,-562.84 -2.04,-844.3 37.96,-3.99 75.92,-8.11 113.83,-12.38 2.67,-0.3 5.32,-0.6 7.98,-0.89 -0.31,-80.88 -0.63,-161.78 -0.93,-242.65 -3.18,-0.15 -6.38,-0.29 -9.57,-0.44 -147.22,-6.68 -296.76,-15.35 -444.46,-25.8 -40.43,-2.82 -80.91,-5.87 -121.35,-8.97 -3.19,-0.24 -6.39,-0.5 -9.59,-0.73 -0.76,79.39 -1.49,158.77 -2.21,238.15 l 232.14,62.74 -110.46,12.85 c -0.45,79.36 -0.89,158.72 -1.3,238.08 -122.66,-8.98 -247.2,-19.4 -370.4,-30.98 1.35,-93.58 2.71,-187.16 4.11,-280.76 38.18,-2.47 119.83,-8.13 122.49,-8.31 1.02,-80.58 2.07,-161.14 3.13,-241.72 -3.2,-0.27 -6.4,-0.54 -9.59,-0.82 -40.5,-3.45 -81,-7.02 -121.51,-10.76 -148.11,-13.6 -298.31,-29.24 -446.25,-46.47 -3.21,-0.38 -6.42,-0.75 -9.63,-1.12 -2.13,79.42 -4.26,158.81 -6.35,238.21 l 218.08,58.94 z m -443.81,-1065.98 621.91,100.16 290.7,-474.73 -995.86,-112.59 245.39,281.47 z m 3950.95,-146.28 c -1137.81,128.57 -1934.08,124.52 -3066.59,1.65 l -428.19,695.56 c 1167.97,141.66 2753.71,142.6 3918.31,-0.83 z m 970.75,-340.88 -982.59,117.1 281.01,469.42 658.28,-119.33 -202.09,-185.72 z m 820.57,3313.2 c 16.13,58.59 24.64,119.27 39.48,192.88 84.21,-190.99 123.47,-378.34 127.23,-572.51 9.63,-496.77 -180.49,-921.31 -482.56,-1302.42 -158.71,-200.23 -341.74,-373.69 -553.31,-513.75 -85.36,-47.14 -172.79,-86.23 -262.79,-117.68 2.55,11.01 5.13,21.99 7.73,32.96 173.9,217.58 217.09,442.66 206.85,644.22 l 163.12,169.77 c 192.5,200.34 366.23,493.77 499.57,825.86 106.9,199.65 192.01,413.06 254.68,640.67 z m 387.67,-1371.78 6.05,521.93 -91.56,-119.06 c 55.34,193.14 81.26,390.32 77.33,593.41 -4.43,228.55 -51.95,442.56 -145.3,654.24 l -221.97,503.5 c -7.12,261.14 -42.42,537.19 -103.2,794.14 -122.6,518.37 -293,763.94 -414.38,878.65 l -418.4,395.47 -5.84,-575.08 -0.08,-2.03 c -0.33,-9.01 -0.91,-25.77 0.96,-46.31 52.99,-584.72 -17.84,-1167.76 -209.84,-1738.05 -709.84,251.98 -1489.71,358.85 -2239.18,358.85 -394.28,0 -788.54,-31.76 -1177.75,-94.56 -294.65,-47.54 -607.98,-101.29 -897.04,-197.06 -175.11,548.61 -238.44,1108.6 -187.54,1670.18 1.83,20.56 1.25,37.17 0.94,46.11 l -0.08,2.25 -5.85,575.7 -418.392,-396.22 C 777.715,7158.04 607.313,6912.47 484.723,6394.11 424.008,6137.44 388.723,5861.7 381.551,5600.8 L 159.523,5097.21 C 66.2031,4885.51 18.6875,4671.5 14.2461,4442.97 10.3164,4239.87 36.2305,4042.69 91.5703,3849.55 L 0,3968.62 6.05078,3446.69 C 11.8633,2947.3 168.75,2494.5 447.789,2171.74 c 13.113,-15.16 26.805,-29.59 40.387,-44.15 l -351.887,153.39 194.996,-418 c 211.059,-452.41 569.246,-744.73 1064.645,-868.789 173.9,-43.55 357.12,-65.652 544.52,-65.652 23.09,0 46.29,0.391 69.55,1.031 -11.36,-3.211 -22.69,-6.5 -34.14,-9.539 -22.31,-5.922 -45.97,-11.191 -73.37,-17.281 -14.51,-3.211 -29.73,-6.602 -45.97,-10.34 l -368.5,-85.051 322.39,-197.711 c 161.18,-98.839 340.61,-148.949 533.29,-148.949 122.85,0 250.52,21.422 379.76,62.121 -35.75,-24.609 -72.12,-49.738 -109.43,-76.242 l -453.9,-322.219 555.09,41.7 c 16.28,1.211 32.13,1.781 48.91,2.371 40.61,1.422 82.65,2.89 128.22,14.058 120.6,29.551 236.32,67.883 347.23,114.453 35.79,-33.531 71.63,-66.992 108.08,-99.761 L 3567,0 3792.16,190.172 c 45.98,38.797 91.61,78.508 136.98,118.816 119.33,-52.008 244.27,-94.468 375,-126.5 45.57,-11.168 87.6,-12.636 128.22,-14.058 16.78,-0.59 32.62,-1.16 48.91,-2.371 l 555.07,-41.7 -453.88,322.219 c -47.57,33.781 -94.04,65.731 -138.97,96.613 -53.3,36.629 -104.75,72.2 -154.33,108.09 5.12,5.207 10.26,10.418 15.38,15.649 238.92,-134.309 481.6,-206.231 708.05,-206.231 192.68,0 372.09,50.11 533.29,148.949 l 322.38,197.711 -368.49,85.051 c -16.27,3.738 -31.49,7.129 -46.01,10.36 -27.38,6.089 -51.02,11.339 -73.35,17.281 -11.43,3.031 -22.74,6.32 -34.08,9.519 23.25,-0.648 46.43,-1.031 69.51,-1.031 187.4,0 370.6,22.102 544.52,65.652 495.4,124.059 853.59,416.379 1064.65,868.789 l 194.99,418 -351.88,-153.39 c 13.58,14.56 27.27,28.99 40.38,44.15 279.04,322.78 435.93,775.56 441.72,1274.95"
         style="fill:#231f20;fill-opacity:1;fill-rule:nonzero;stroke:none"
         id="path12" />
      <path
         d="m 2607.04,2371.82 c -30.22,-1.96 -60.44,-4.01 -90.66,-6.15 1.95,-27.69 3.92,-55.39 5.88,-83.09 29.67,2.1 59.36,4.11 89.03,6.04 1.56,-23.96 3.12,-47.92 4.68,-71.89 -29.54,-1.92 -59.09,-3.93 -88.63,-6.02 1.96,-27.7 3.9,-55.4 5.87,-83.1 31.65,2.24 63.31,4.38 94.97,6.43 1.88,14.79 3.77,29.57 5.66,44.36 23.05,1.47 46.11,2.9 69.17,4.28 2.41,-40.46 4.84,-80.91 7.24,-121.36 -98.45,-5.88 -196.88,-12.69 -295.25,-20.43 -1.72,21.89 -3.45,43.77 -5.17,65.65 11.15,2.76 22.3,5.51 33.44,8.24 -6.38,83.44 -12.77,166.88 -19.15,250.31 -11.62,0.99 -23.24,1.97 -34.87,2.94 -1.72,21.88 -3.45,43.77 -5.17,65.65 98.94,7.79 197.92,14.65 296.95,20.59 2.42,-40.45 4.86,-80.9 7.28,-121.36 -23.28,-1.39 -46.56,-2.84 -69.83,-4.34 -3.8,14.42 -7.62,28.84 -11.44,43.25"
         style="fill:#231f20;fill-opacity:1;fill-rule:nonzero;stroke:none"
         id="path14" />
      <path
         d="m 2853.26,2146.96 c 23.39,1.17 46.76,2.29 70.15,3.36 26.61,1.21 36.29,11.75 35.18,38.19 -0.1,2.44 -0.2,4.88 -0.31,7.31 -1.2,26.43 -11.75,36.13 -38.55,34.91 -14.03,-0.64 -28.05,-1.3 -42.08,-1.98 -76.13,-3.72 -113.66,36.34 -117.95,111.67 -0.14,2.62 -0.29,5.24 -0.44,7.87 -4.01,70.78 33.67,112.45 107,116.02 51.93,2.51 103.88,4.77 155.84,6.78 1.52,-39.37 3.04,-78.74 4.56,-118.11 -23.3,-0.9 -46.61,-1.85 -69.9,-2.86 -3.44,13.38 -6.89,26.75 -10.36,40.12 -19.91,-0.87 -39.82,-1.77 -59.74,-2.71 -27,-1.29 -36.83,-11.94 -35.51,-38.36 0.12,-2.43 0.24,-4.87 0.36,-7.3 1.31,-26.43 12.12,-36.02 38.96,-34.74 14.29,0.67 28.58,1.33 42.86,1.97 76.02,3.36 113.11,-37.64 115.89,-113.54 0.1,-2.63 0.2,-5.25 0.3,-7.88 3.17,-86.65 -46.64,-111.47 -129.32,-115.26 -46.54,-2.15 -93.06,-4.5 -139.58,-7.07 -2.18,39.34 -4.34,78.68 -6.51,118.02 22.87,1.27 45.74,2.48 68.61,3.64 3.52,-13.35 7.03,-26.7 10.54,-40.05"
         style="fill:#231f20;fill-opacity:1;fill-rule:nonzero;stroke:none"
         id="path16" />
      <path
         d="m 3228.52,2400.03 c 1.04,-40.51 2.09,-81.03 3.13,-121.54 17.12,0.44 34.23,0.86 51.34,1.24 26.75,0.6 36.85,10.92 36.33,37.37 -0.31,15.38 -0.62,30.76 -0.94,46.15 -0.62,28.13 -11.14,38.63 -38.14,38.03 -17.24,-0.39 -34.48,-0.81 -51.72,-1.25 z m 181.51,-29 c 0.28,-18.76 0.55,-37.52 0.82,-56.28 0.95,-70.94 -38.18,-110.79 -109.09,-112.3 -22.7,-0.49 -45.4,-1.03 -68.1,-1.61 0.4,-15.19 0.79,-30.39 1.18,-45.58 11.36,-1.58 22.72,-3.17 34.09,-4.78 0.52,-21.95 1.04,-43.89 1.55,-65.84 -52.58,-1.24 -105.14,-2.75 -157.7,-4.53 -0.74,21.94 -1.49,43.88 -2.22,65.82 11.25,2.26 22.49,4.5 33.75,6.73 -2.63,83.64 -5.28,167.28 -7.92,250.92 -11.56,1.51 -23.12,3.01 -34.68,4.49 -0.74,21.94 -1.49,43.88 -2.22,65.82 65.43,2.21 130.86,4.02 196.32,5.42 72.27,1.54 113.26,-37.39 114.22,-108.28"
         style="fill:#231f20;fill-opacity:1;fill-rule:nonzero;stroke:none"
         id="path18" />
      <path
         d="m 3582.75,2202.03 c 0.07,-25.89 11.5,-38.21 36.93,-38.17 16.05,0.02 32.08,0.01 48.12,-0.02 25.47,-0.05 36.83,10.02 36.96,38.16 0.23,56.48 0.46,112.95 0.7,169.43 0.13,25.88 -10.19,36.64 -37.22,36.69 -16.29,0.03 -32.57,0.04 -48.86,0.02 -27.07,-0.04 -37.35,-10.79 -37.24,-36.68 0.2,-56.48 0.41,-112.95 0.61,-169.43 z m 212.75,-6.85 c -0.76,-70.38 -40.57,-109.28 -111.5,-109.06 -26.85,0.08 -53.7,0.09 -80.55,0.03 -70.92,-0.19 -110.66,38.73 -111.44,109.11 -0.56,59.85 -1.12,119.69 -1.68,179.54 -0.71,70.89 39.34,110.79 112.19,110.98 27.55,0.06 55.09,0.06 82.62,-0.02 72.85,-0.23 112.92,-40.16 112.13,-111.04 -0.59,-59.85 -1.18,-119.7 -1.77,-179.54"
         style="fill:#231f20;fill-opacity:1;fill-rule:nonzero;stroke:none"
         id="path20" />
      <path
         d="m 3993.01,2401.41 c -0.82,-36.77 -1.63,-73.53 -2.45,-110.3 19.59,-0.43 39.19,-0.9 58.78,-1.41 26.8,-0.7 37.39,9.12 38.13,35.57 0.35,12.37 0.7,24.75 1.05,37.13 0.79,25.88 -9.3,36.88 -36.32,37.58 -19.73,0.51 -39.46,0.99 -59.19,1.43 z m 187.38,-37.93 c -0.51,-15 -1.02,-30 -1.54,-45 -2.23,-63.54 -46.7,-82.37 -46.65,-82.39 -0.05,-1.88 -0.11,-3.75 -0.18,-5.63 9.43,-26.2 18.81,-52.4 28.13,-78.62 11.25,-2.25 22.49,-4.51 33.74,-6.79 -0.79,-21.94 -1.55,-43.87 -2.33,-65.81 -34.53,1.22 -69.09,2.33 -103.62,3.32 -14.37,43.21 -28.83,86.4 -43.45,129.57 -18.56,0.47 -37.1,0.92 -55.65,1.33 -0.95,-42.77 -1.9,-85.53 -2.85,-128.3 -41.32,0.92 -82.62,1.67 -123.94,2.26 0.32,21.95 0.63,43.9 0.94,65.85 11.35,1.71 22.69,3.41 34.04,5.1 1.39,83.67 2.75,167.34 4.12,251.01 -11.47,2.06 -22.94,4.11 -34.41,6.15 0.31,21.95 0.62,43.9 0.94,65.85 67.95,-0.97 135.9,-2.37 203.86,-4.21 72.27,-1.97 111.3,-42.84 108.85,-113.69"
         style="fill:#231f20;fill-opacity:1;fill-rule:nonzero;stroke:none"
         id="path22" />
      <path
         d="m 4346.4,2389.63 c -15.31,0.69 -30.63,1.34 -45.96,1.98 -2.82,-12.46 -5.63,-24.93 -8.44,-37.39 -20.64,0.84 -41.26,1.65 -61.89,2.42 1.42,38.43 2.86,76.87 4.29,115.3 107.76,-4.01 215.5,-9.11 323.19,-15.29 -2.21,-38.4 -4.42,-76.8 -6.62,-115.2 -20.62,1.19 -41.24,2.33 -61.87,3.44 -1.61,12.67 -3.24,25.34 -4.87,38.02 -15.3,0.81 -30.63,1.6 -45.94,2.37 -4.09,-81.51 -8.19,-163.02 -12.28,-244.53 11.22,-2.45 22.42,-4.9 33.63,-7.37 -1.15,-21.92 -2.3,-43.84 -3.45,-65.76 -52.53,2.75 -105.07,5.24 -157.62,7.46 0.93,21.93 1.85,43.87 2.78,65.8 11.39,1.39 22.78,2.78 34.18,4.15 3.62,81.53 7.25,163.07 10.87,244.6"
         style="fill:#231f20;fill-opacity:1;fill-rule:nonzero;stroke:none"
         id="path24" />
      <path
         d="m 4672.89,2132.6 c 23.35,-1.54 46.72,-3.14 70.08,-4.79 26.57,-1.87 37.43,7.47 39.4,33.86 0.18,2.43 0.35,4.86 0.53,7.3 1.93,26.37 -7.55,37.25 -34.27,39.13 -14.01,0.99 -28.02,1.96 -42.03,2.91 -76.06,5.13 -108.77,49.26 -104.24,124.58 0.15,2.62 0.32,5.25 0.48,7.87 4.23,70.77 46.41,107.8 119.73,102.85 51.9,-3.52 103.78,-7.3 155.63,-11.32 -3.04,-39.29 -6.1,-78.57 -9.15,-117.85 -23.26,1.81 -46.52,3.56 -69.79,5.26 -1.88,13.69 -3.76,27.37 -5.65,41.05 -19.88,1.45 -39.77,2.86 -59.67,4.23 -26.99,1.85 -37.96,-7.59 -39.72,-33.99 -0.16,-2.43 -0.32,-4.86 -0.48,-7.29 -1.8,-26.41 7.85,-37.18 34.67,-39.02 14.27,-0.99 28.55,-1.99 42.82,-3.01 75.98,-5.48 108.01,-50.49 102.01,-126.2 -0.2,-2.62 -0.42,-5.24 -0.62,-7.86 -6.87,-86.44 -59.27,-105.31 -141.86,-99.5 -46.49,3.25 -92.98,6.31 -139.5,9.15 2.41,39.32 4.82,78.65 7.21,117.98 22.86,-1.4 45.73,-2.85 68.58,-4.34 1.96,-13.67 3.9,-27.34 5.84,-41"
         style="fill:#231f20;fill-opacity:1;fill-rule:nonzero;stroke:none"
         id="path26" />
    </g>
  </g>
</svg>
